<mxfile host="Electron" modified="2023-10-25T13:00:06.325Z" agent="Mozilla/5.0 (Windows NT 10.0; Win64; x64) AppleWebKit/537.36 (KHTML, like Gecko) draw.io/22.0.3 Chrome/114.0.5735.289 Electron/25.8.4 Safari/537.36" etag="f7BLMC3k78BKQzbNQfYf" version="22.0.3" type="device">
  <diagram name="第 1 页" id="hUhi0cJ1YhJoHKlOn2B6">
    <mxGraphModel dx="3143" dy="2554" grid="1" gridSize="10" guides="1" tooltips="1" connect="1" arrows="1" fold="1" page="1" pageScale="1" pageWidth="827" pageHeight="1169" math="0" shadow="0">
      <root>
        <mxCell id="0" />
        <mxCell id="1" parent="0" />
        <mxCell id="2IGgDt8cm9o-xS9LzgXf-10" style="edgeStyle=orthogonalEdgeStyle;rounded=0;orthogonalLoop=1;jettySize=auto;html=1;entryX=0.5;entryY=0;entryDx=0;entryDy=0;" parent="1" source="2IGgDt8cm9o-xS9LzgXf-2" target="2IGgDt8cm9o-xS9LzgXf-5" edge="1">
          <mxGeometry relative="1" as="geometry">
            <Array as="points">
              <mxPoint x="1491" y="220" />
              <mxPoint x="1621" y="220" />
            </Array>
          </mxGeometry>
        </mxCell>
        <mxCell id="2IGgDt8cm9o-xS9LzgXf-2" value="&lt;b style=&quot;font-size: 13px;&quot;&gt;Aerosol optical thickness&lt;br&gt;(MOD04)&lt;/b&gt;" style="shape=parallelogram;perimeter=parallelogramPerimeter;whiteSpace=wrap;html=1;fixedSize=1;fillColor=#f5f5f5;fontColor=#333333;strokeColor=#666666;" parent="1" vertex="1">
          <mxGeometry x="1431" y="150" width="120" height="60" as="geometry" />
        </mxCell>
        <mxCell id="2IGgDt8cm9o-xS9LzgXf-8" style="edgeStyle=orthogonalEdgeStyle;rounded=0;orthogonalLoop=1;jettySize=auto;html=1;exitX=0.5;exitY=1;exitDx=0;exitDy=0;entryX=0.5;entryY=0;entryDx=0;entryDy=0;" parent="1" source="2IGgDt8cm9o-xS9LzgXf-3" target="2IGgDt8cm9o-xS9LzgXf-5" edge="1">
          <mxGeometry relative="1" as="geometry" />
        </mxCell>
        <mxCell id="2IGgDt8cm9o-xS9LzgXf-3" value="&lt;b style=&quot;font-size: 14px;&quot;&gt;Aerosol type&lt;br&gt;(MOD04)&lt;/b&gt;" style="shape=parallelogram;perimeter=parallelogramPerimeter;whiteSpace=wrap;html=1;fixedSize=1;fillColor=#f5f5f5;fontColor=#333333;strokeColor=#666666;" parent="1" vertex="1">
          <mxGeometry x="1561" y="150" width="120" height="60" as="geometry" />
        </mxCell>
        <mxCell id="2IGgDt8cm9o-xS9LzgXf-9" style="edgeStyle=orthogonalEdgeStyle;rounded=0;orthogonalLoop=1;jettySize=auto;html=1;exitX=0.5;exitY=1;exitDx=0;exitDy=0;entryX=0.5;entryY=0;entryDx=0;entryDy=0;" parent="1" source="2IGgDt8cm9o-xS9LzgXf-4" target="2IGgDt8cm9o-xS9LzgXf-5" edge="1">
          <mxGeometry relative="1" as="geometry">
            <Array as="points">
              <mxPoint x="1751" y="220" />
              <mxPoint x="1621" y="220" />
            </Array>
          </mxGeometry>
        </mxCell>
        <mxCell id="2IGgDt8cm9o-xS9LzgXf-11" style="edgeStyle=orthogonalEdgeStyle;rounded=0;orthogonalLoop=1;jettySize=auto;html=1;exitX=0.75;exitY=1;exitDx=0;exitDy=0;entryX=0.25;entryY=0;entryDx=0;entryDy=0;" parent="1" source="2IGgDt8cm9o-xS9LzgXf-4" target="2IGgDt8cm9o-xS9LzgXf-6" edge="1">
          <mxGeometry relative="1" as="geometry" />
        </mxCell>
        <mxCell id="2IGgDt8cm9o-xS9LzgXf-4" value="&lt;b style=&quot;font-size: 16px;&quot;&gt;Albedo&lt;br&gt;(MCD43)&lt;/b&gt;" style="shape=parallelogram;perimeter=parallelogramPerimeter;whiteSpace=wrap;html=1;fixedSize=1;fillColor=#f5f5f5;fontColor=#333333;strokeColor=#666666;" parent="1" vertex="1">
          <mxGeometry x="1691" y="150" width="120" height="60" as="geometry" />
        </mxCell>
        <mxCell id="2IGgDt8cm9o-xS9LzgXf-12" style="edgeStyle=orthogonalEdgeStyle;rounded=0;orthogonalLoop=1;jettySize=auto;html=1;exitX=1;exitY=0.5;exitDx=0;exitDy=0;entryX=0;entryY=0.5;entryDx=0;entryDy=0;" parent="1" source="2IGgDt8cm9o-xS9LzgXf-5" edge="1" target="2IGgDt8cm9o-xS9LzgXf-6">
          <mxGeometry relative="1" as="geometry">
            <mxPoint x="1731" y="270" as="targetPoint" />
          </mxGeometry>
        </mxCell>
        <mxCell id="2IGgDt8cm9o-xS9LzgXf-22" style="edgeStyle=orthogonalEdgeStyle;rounded=0;orthogonalLoop=1;jettySize=auto;html=1;entryX=0.5;entryY=0;entryDx=0;entryDy=0;" parent="1" source="2IGgDt8cm9o-xS9LzgXf-5" target="2IGgDt8cm9o-xS9LzgXf-21" edge="1">
          <mxGeometry relative="1" as="geometry">
            <Array as="points">
              <mxPoint x="1621" y="320" />
              <mxPoint x="1891" y="320" />
            </Array>
          </mxGeometry>
        </mxCell>
        <mxCell id="2IGgDt8cm9o-xS9LzgXf-5" value="&lt;b&gt;R&lt;sub&gt;SD&amp;nbsp;&lt;/sub&gt;&lt;/b&gt;&lt;b&gt;downwelling shortwave radiation&lt;/b&gt;" style="rounded=1;whiteSpace=wrap;html=1;" parent="1" vertex="1">
          <mxGeometry x="1561" y="240" width="120" height="60" as="geometry" />
        </mxCell>
        <mxCell id="2IGgDt8cm9o-xS9LzgXf-23" style="edgeStyle=orthogonalEdgeStyle;rounded=0;orthogonalLoop=1;jettySize=auto;html=1;entryX=0.5;entryY=0;entryDx=0;entryDy=0;" parent="1" source="2IGgDt8cm9o-xS9LzgXf-6" target="2IGgDt8cm9o-xS9LzgXf-21" edge="1">
          <mxGeometry relative="1" as="geometry" />
        </mxCell>
        <mxCell id="2IGgDt8cm9o-xS9LzgXf-6" value="&lt;b&gt;R&lt;sub&gt;SU&amp;nbsp;&lt;/sub&gt;upwelling shortwave radiation&lt;/b&gt;" style="rounded=1;whiteSpace=wrap;html=1;" parent="1" vertex="1">
          <mxGeometry x="1735" y="240" width="120" height="60" as="geometry" />
        </mxCell>
        <mxCell id="2IGgDt8cm9o-xS9LzgXf-15" style="edgeStyle=orthogonalEdgeStyle;rounded=0;orthogonalLoop=1;jettySize=auto;html=1;entryX=0.5;entryY=0;entryDx=0;entryDy=0;" parent="1" source="2IGgDt8cm9o-xS9LzgXf-13" target="2IGgDt8cm9o-xS9LzgXf-14" edge="1">
          <mxGeometry relative="1" as="geometry">
            <Array as="points">
              <mxPoint x="1900" y="220" />
              <mxPoint x="1939" y="220" />
            </Array>
          </mxGeometry>
        </mxCell>
        <mxCell id="2IGgDt8cm9o-xS9LzgXf-13" value="&lt;b style=&quot;border-color: var(--border-color); font-size: 14px;&quot;&gt;Air temperature&lt;br style=&quot;border-color: var(--border-color);&quot;&gt;(MOD07)&lt;/b&gt;" style="shape=parallelogram;perimeter=parallelogramPerimeter;whiteSpace=wrap;html=1;fixedSize=1;fillColor=#f5f5f5;fontColor=#333333;strokeColor=#666666;" parent="1" vertex="1">
          <mxGeometry x="1840" y="150" width="120" height="60" as="geometry" />
        </mxCell>
        <mxCell id="2IGgDt8cm9o-xS9LzgXf-24" style="edgeStyle=orthogonalEdgeStyle;rounded=0;orthogonalLoop=1;jettySize=auto;html=1;entryX=0.5;entryY=0;entryDx=0;entryDy=0;" parent="1" source="2IGgDt8cm9o-xS9LzgXf-14" target="2IGgDt8cm9o-xS9LzgXf-21" edge="1">
          <mxGeometry relative="1" as="geometry" />
        </mxCell>
        <mxCell id="2IGgDt8cm9o-xS9LzgXf-14" value="&lt;b&gt;R&lt;sub&gt;LD&lt;/sub&gt;&lt;/b&gt;&lt;sub style=&quot;font-weight: bold;&quot;&gt;&amp;nbsp;&lt;/sub&gt;&lt;b&gt;&amp;nbsp;downwelling&lt;br&gt;longwave radiation&lt;/b&gt;" style="rounded=1;whiteSpace=wrap;html=1;" parent="1" vertex="1">
          <mxGeometry x="1879" y="240" width="120" height="60" as="geometry" />
        </mxCell>
        <mxCell id="2IGgDt8cm9o-xS9LzgXf-27" style="edgeStyle=orthogonalEdgeStyle;rounded=0;orthogonalLoop=1;jettySize=auto;html=1;exitX=0.5;exitY=1;exitDx=0;exitDy=0;" parent="1" source="2IGgDt8cm9o-xS9LzgXf-16" target="2IGgDt8cm9o-xS9LzgXf-21" edge="1">
          <mxGeometry relative="1" as="geometry" />
        </mxCell>
        <mxCell id="2IGgDt8cm9o-xS9LzgXf-16" value="&lt;b&gt;R&lt;sub&gt;LU&lt;/sub&gt;&lt;/b&gt;&lt;sub style=&quot;font-weight: bold;&quot;&gt;&amp;nbsp;&lt;/sub&gt;&lt;b&gt;upwelling longwave radiation&lt;/b&gt;" style="rounded=1;whiteSpace=wrap;html=1;" parent="1" vertex="1">
          <mxGeometry x="2170" y="240" width="120" height="60" as="geometry" />
        </mxCell>
        <mxCell id="2IGgDt8cm9o-xS9LzgXf-19" style="edgeStyle=orthogonalEdgeStyle;rounded=0;orthogonalLoop=1;jettySize=auto;html=1;exitX=0.5;exitY=1;exitDx=0;exitDy=0;entryX=0.5;entryY=0;entryDx=0;entryDy=0;" parent="1" source="2IGgDt8cm9o-xS9LzgXf-17" target="2IGgDt8cm9o-xS9LzgXf-16" edge="1">
          <mxGeometry relative="1" as="geometry">
            <Array as="points">
              <mxPoint x="2170" y="220" />
              <mxPoint x="2230" y="220" />
            </Array>
          </mxGeometry>
        </mxCell>
        <mxCell id="2IGgDt8cm9o-xS9LzgXf-17" value="&lt;font style=&quot;font-size: 12px;&quot;&gt;&lt;b&gt;radiometric surface temperature&lt;/b&gt;&lt;br&gt;&lt;b style=&quot;&quot;&gt;(MOD11L2)&lt;/b&gt;&lt;/font&gt;" style="shape=parallelogram;perimeter=parallelogramPerimeter;whiteSpace=wrap;html=1;fixedSize=1;fillColor=#f5f5f5;fontColor=#333333;strokeColor=#666666;" parent="1" vertex="1">
          <mxGeometry x="2110" y="150" width="120" height="60" as="geometry" />
        </mxCell>
        <mxCell id="2IGgDt8cm9o-xS9LzgXf-20" style="edgeStyle=orthogonalEdgeStyle;rounded=0;orthogonalLoop=1;jettySize=auto;html=1;exitX=0.5;exitY=1;exitDx=0;exitDy=0;entryX=0.5;entryY=0;entryDx=0;entryDy=0;" parent="1" source="2IGgDt8cm9o-xS9LzgXf-18" target="2IGgDt8cm9o-xS9LzgXf-16" edge="1">
          <mxGeometry relative="1" as="geometry">
            <Array as="points">
              <mxPoint x="2310" y="220" />
              <mxPoint x="2230" y="220" />
            </Array>
          </mxGeometry>
        </mxCell>
        <mxCell id="2IGgDt8cm9o-xS9LzgXf-18" value="&lt;font style=&quot;font-size: 14px;&quot;&gt;&lt;b&gt;Surface emissivity&lt;/b&gt;&lt;br&gt;&lt;b style=&quot;&quot;&gt;(MOD11L2)&lt;/b&gt;&lt;/font&gt;" style="shape=parallelogram;perimeter=parallelogramPerimeter;whiteSpace=wrap;html=1;fixedSize=1;fillColor=#f5f5f5;fontColor=#333333;strokeColor=#666666;" parent="1" vertex="1">
          <mxGeometry x="2250" y="150" width="120" height="60" as="geometry" />
        </mxCell>
        <mxCell id="2IGgDt8cm9o-xS9LzgXf-109" style="edgeStyle=orthogonalEdgeStyle;rounded=0;orthogonalLoop=1;jettySize=auto;html=1;exitX=0.25;exitY=1;exitDx=0;exitDy=0;entryX=1;entryY=0.75;entryDx=0;entryDy=0;" parent="1" source="2IGgDt8cm9o-xS9LzgXf-21" target="2IGgDt8cm9o-xS9LzgXf-34" edge="1">
          <mxGeometry relative="1" as="geometry">
            <Array as="points">
              <mxPoint x="1861" y="715" />
            </Array>
          </mxGeometry>
        </mxCell>
        <mxCell id="2IGgDt8cm9o-xS9LzgXf-123" style="edgeStyle=orthogonalEdgeStyle;rounded=0;orthogonalLoop=1;jettySize=auto;html=1;exitX=1;exitY=0.5;exitDx=0;exitDy=0;entryX=0.5;entryY=0;entryDx=0;entryDy=0;" parent="1" source="2IGgDt8cm9o-xS9LzgXf-21" target="2IGgDt8cm9o-xS9LzgXf-68" edge="1">
          <mxGeometry relative="1" as="geometry">
            <Array as="points">
              <mxPoint x="1986" y="370" />
            </Array>
          </mxGeometry>
        </mxCell>
        <mxCell id="2IGgDt8cm9o-xS9LzgXf-125" style="edgeStyle=orthogonalEdgeStyle;rounded=0;orthogonalLoop=1;jettySize=auto;html=1;exitX=0.5;exitY=1;exitDx=0;exitDy=0;entryX=0.5;entryY=0;entryDx=0;entryDy=0;" parent="1" source="2IGgDt8cm9o-xS9LzgXf-21" target="2IGgDt8cm9o-xS9LzgXf-65" edge="1">
          <mxGeometry relative="1" as="geometry">
            <Array as="points">
              <mxPoint x="1891" y="840" />
            </Array>
          </mxGeometry>
        </mxCell>
        <mxCell id="2IGgDt8cm9o-xS9LzgXf-127" style="edgeStyle=orthogonalEdgeStyle;rounded=0;orthogonalLoop=1;jettySize=auto;html=1;entryX=0.5;entryY=0;entryDx=0;entryDy=0;" parent="1" source="2IGgDt8cm9o-xS9LzgXf-21" target="2IGgDt8cm9o-xS9LzgXf-71" edge="1">
          <mxGeometry relative="1" as="geometry" />
        </mxCell>
        <mxCell id="2IGgDt8cm9o-xS9LzgXf-21" value="&lt;font style=&quot;font-size: 18px;&quot;&gt;&lt;b&gt;R&lt;sub&gt;N&lt;/sub&gt;&lt;/b&gt;&lt;sub style=&quot;font-weight: bold;&quot;&gt;&amp;nbsp;&lt;/sub&gt;&lt;b&gt;&amp;nbsp;&lt;/b&gt;&lt;br&gt;net&amp;nbsp;radiation&lt;/font&gt;" style="rounded=1;whiteSpace=wrap;html=1;" parent="1" vertex="1">
          <mxGeometry x="1831" y="340" width="120" height="60" as="geometry" />
        </mxCell>
        <mxCell id="2IGgDt8cm9o-xS9LzgXf-97" style="edgeStyle=orthogonalEdgeStyle;rounded=0;orthogonalLoop=1;jettySize=auto;html=1;" parent="1" source="2IGgDt8cm9o-xS9LzgXf-28" target="2IGgDt8cm9o-xS9LzgXf-29" edge="1">
          <mxGeometry relative="1" as="geometry" />
        </mxCell>
        <mxCell id="2IGgDt8cm9o-xS9LzgXf-28" value="&lt;font style=&quot;font-size: 14px;&quot;&gt;&lt;b&gt;Dew point temperature&lt;br&gt;(MOD07)&lt;/b&gt;&lt;/font&gt;" style="shape=parallelogram;perimeter=parallelogramPerimeter;whiteSpace=wrap;html=1;fixedSize=1;fillColor=#f5f5f5;fontColor=#333333;strokeColor=#666666;" parent="1" vertex="1">
          <mxGeometry x="1291" y="150" width="120" height="60" as="geometry" />
        </mxCell>
        <mxCell id="2IGgDt8cm9o-xS9LzgXf-100" style="edgeStyle=orthogonalEdgeStyle;rounded=0;orthogonalLoop=1;jettySize=auto;html=1;exitX=0.5;exitY=1;exitDx=0;exitDy=0;" parent="1" source="2IGgDt8cm9o-xS9LzgXf-29" edge="1">
          <mxGeometry relative="1" as="geometry">
            <mxPoint x="1191" y="460" as="targetPoint" />
          </mxGeometry>
        </mxCell>
        <mxCell id="2IGgDt8cm9o-xS9LzgXf-29" value="&lt;font style=&quot;font-size: 17px;&quot;&gt;&lt;b&gt;e&lt;sub&gt;a&lt;/sub&gt;&lt;/b&gt;&lt;sub style=&quot;font-weight: bold;&quot;&gt;&amp;nbsp;&lt;/sub&gt;&lt;b&gt;&amp;nbsp;&lt;/b&gt;&lt;br&gt;water vapor pressure&lt;/font&gt;" style="rounded=1;whiteSpace=wrap;html=1;" parent="1" vertex="1">
          <mxGeometry x="1291" y="340" width="120" height="60" as="geometry" />
        </mxCell>
        <mxCell id="2IGgDt8cm9o-xS9LzgXf-33" style="edgeStyle=orthogonalEdgeStyle;rounded=0;orthogonalLoop=1;jettySize=auto;html=1;" parent="1" source="2IGgDt8cm9o-xS9LzgXf-31" target="2IGgDt8cm9o-xS9LzgXf-32" edge="1">
          <mxGeometry relative="1" as="geometry" />
        </mxCell>
        <mxCell id="2IGgDt8cm9o-xS9LzgXf-31" value="&lt;font style=&quot;font-size: 14px;&quot;&gt;&lt;b&gt;Air temperature&lt;br&gt;(MOD07)&lt;/b&gt;&lt;/font&gt;" style="shape=parallelogram;perimeter=parallelogramPerimeter;whiteSpace=wrap;html=1;fixedSize=1;fillColor=#f5f5f5;fontColor=#333333;strokeColor=#666666;" parent="1" vertex="1">
          <mxGeometry x="963" y="150" width="120" height="60" as="geometry" />
        </mxCell>
        <mxCell id="2IGgDt8cm9o-xS9LzgXf-48" style="edgeStyle=orthogonalEdgeStyle;rounded=0;orthogonalLoop=1;jettySize=auto;html=1;exitX=0.25;exitY=1;exitDx=0;exitDy=0;entryX=0.5;entryY=0;entryDx=0;entryDy=0;" parent="1" source="2IGgDt8cm9o-xS9LzgXf-32" target="2IGgDt8cm9o-xS9LzgXf-35" edge="1">
          <mxGeometry relative="1" as="geometry" />
        </mxCell>
        <mxCell id="2IGgDt8cm9o-xS9LzgXf-98" style="edgeStyle=orthogonalEdgeStyle;rounded=0;orthogonalLoop=1;jettySize=auto;html=1;exitX=1;exitY=0.5;exitDx=0;exitDy=0;entryX=0;entryY=0.5;entryDx=0;entryDy=0;" parent="1" source="2IGgDt8cm9o-xS9LzgXf-32" target="2IGgDt8cm9o-xS9LzgXf-39" edge="1">
          <mxGeometry relative="1" as="geometry" />
        </mxCell>
        <mxCell id="2IGgDt8cm9o-xS9LzgXf-115" style="edgeStyle=orthogonalEdgeStyle;rounded=0;orthogonalLoop=1;jettySize=auto;html=1;entryX=0;entryY=0.5;entryDx=0;entryDy=0;exitX=0.75;exitY=1;exitDx=0;exitDy=0;" parent="1" source="2IGgDt8cm9o-xS9LzgXf-32" target="2IGgDt8cm9o-xS9LzgXf-113" edge="1">
          <mxGeometry relative="1" as="geometry">
            <mxPoint x="960" y="370" as="sourcePoint" />
            <Array as="points">
              <mxPoint x="1053" y="570" />
            </Array>
          </mxGeometry>
        </mxCell>
        <mxCell id="2IGgDt8cm9o-xS9LzgXf-120" style="edgeStyle=orthogonalEdgeStyle;rounded=0;orthogonalLoop=1;jettySize=auto;html=1;exitX=0.5;exitY=1;exitDx=0;exitDy=0;entryX=0.5;entryY=0;entryDx=0;entryDy=0;" parent="1" source="2IGgDt8cm9o-xS9LzgXf-32" target="2IGgDt8cm9o-xS9LzgXf-74" edge="1">
          <mxGeometry relative="1" as="geometry" />
        </mxCell>
        <mxCell id="2IGgDt8cm9o-xS9LzgXf-32" value="&lt;font style=&quot;font-size: 15px;&quot;&gt;&lt;b style=&quot;&quot;&gt;&lt;sub style=&quot;&quot;&gt;&lt;span style=&quot;font-size: 15px;&quot;&gt;Ta&lt;/span&gt;&lt;/sub&gt;&lt;/b&gt;&lt;sub style=&quot;font-weight: bold;&quot;&gt;&amp;nbsp;&lt;/sub&gt;&lt;b&gt;&amp;nbsp;&lt;/b&gt;&lt;br&gt;near surface air temperature&lt;/font&gt;" style="rounded=1;whiteSpace=wrap;html=1;" parent="1" vertex="1">
          <mxGeometry x="963" y="340" width="120" height="60" as="geometry" />
        </mxCell>
        <mxCell id="2IGgDt8cm9o-xS9LzgXf-130" style="edgeStyle=orthogonalEdgeStyle;rounded=0;orthogonalLoop=1;jettySize=auto;html=1;exitX=0.5;exitY=1;exitDx=0;exitDy=0;entryX=0;entryY=0.5;entryDx=0;entryDy=0;" parent="1" source="2IGgDt8cm9o-xS9LzgXf-34" target="2IGgDt8cm9o-xS9LzgXf-74" edge="1">
          <mxGeometry relative="1" as="geometry" />
        </mxCell>
        <mxCell id="2IGgDt8cm9o-xS9LzgXf-34" value="&lt;span style=&quot;font-size: 16px;&quot;&gt;&lt;font style=&quot;font-size: 16px;&quot;&gt;&lt;b&gt;T&lt;/b&gt;&lt;sub style=&quot;font-weight: bold;&quot;&gt;opt&lt;/sub&gt;&lt;br&gt;optimum temperature&lt;/font&gt;&lt;/span&gt;" style="rounded=1;whiteSpace=wrap;html=1;" parent="1" vertex="1">
          <mxGeometry x="861" y="670" width="120" height="60" as="geometry" />
        </mxCell>
        <mxCell id="2IGgDt8cm9o-xS9LzgXf-129" style="edgeStyle=orthogonalEdgeStyle;rounded=0;orthogonalLoop=1;jettySize=auto;html=1;exitX=0.5;exitY=1;exitDx=0;exitDy=0;entryX=0.5;entryY=0;entryDx=0;entryDy=0;" parent="1" source="2IGgDt8cm9o-xS9LzgXf-35" target="2IGgDt8cm9o-xS9LzgXf-34" edge="1">
          <mxGeometry relative="1" as="geometry" />
        </mxCell>
        <mxCell id="2IGgDt8cm9o-xS9LzgXf-35" value="&lt;font style=&quot;font-size: 16px;&quot;&gt;&lt;b style=&quot;&quot;&gt;&lt;sub style=&quot;&quot;&gt;&lt;span style=&quot;font-size: 16px;&quot;&gt;Tmax&lt;/span&gt;&lt;/sub&gt;&lt;/b&gt;&lt;sub style=&quot;font-weight: bold;&quot;&gt;&amp;nbsp;&lt;/sub&gt;&lt;b&gt;&amp;nbsp;&lt;/b&gt;&lt;br&gt;maximum air temperature&lt;/font&gt;" style="rounded=1;whiteSpace=wrap;html=1;" parent="1" vertex="1">
          <mxGeometry x="861" y="460" width="120" height="60" as="geometry" />
        </mxCell>
        <mxCell id="2IGgDt8cm9o-xS9LzgXf-49" style="edgeStyle=orthogonalEdgeStyle;rounded=0;orthogonalLoop=1;jettySize=auto;html=1;entryX=0.5;entryY=0;entryDx=0;entryDy=0;" parent="1" source="2IGgDt8cm9o-xS9LzgXf-36" target="2IGgDt8cm9o-xS9LzgXf-37" edge="1">
          <mxGeometry relative="1" as="geometry" />
        </mxCell>
        <mxCell id="2IGgDt8cm9o-xS9LzgXf-36" value="&lt;b style=&quot;&quot;&gt;&lt;font style=&quot;font-size: 17px;&quot;&gt;Red-NIR reflectance&lt;/font&gt;&lt;/b&gt;" style="shape=parallelogram;perimeter=parallelogramPerimeter;whiteSpace=wrap;html=1;fixedSize=1;fillColor=#f5f5f5;fontColor=#333333;strokeColor=#666666;" parent="1" vertex="1">
          <mxGeometry x="351" y="150" width="120" height="60" as="geometry" />
        </mxCell>
        <mxCell id="2IGgDt8cm9o-xS9LzgXf-50" style="edgeStyle=orthogonalEdgeStyle;rounded=0;orthogonalLoop=1;jettySize=auto;html=1;exitX=0.5;exitY=1;exitDx=0;exitDy=0;entryX=0.5;entryY=0;entryDx=0;entryDy=0;" parent="1" source="2IGgDt8cm9o-xS9LzgXf-37" target="2IGgDt8cm9o-xS9LzgXf-38" edge="1">
          <mxGeometry relative="1" as="geometry">
            <Array as="points">
              <mxPoint x="460" y="370" />
              <mxPoint x="801" y="370" />
            </Array>
          </mxGeometry>
        </mxCell>
        <mxCell id="2IGgDt8cm9o-xS9LzgXf-61" style="edgeStyle=orthogonalEdgeStyle;rounded=0;orthogonalLoop=1;jettySize=auto;html=1;entryX=0.5;entryY=0;entryDx=0;entryDy=0;exitX=0.5;exitY=1;exitDx=0;exitDy=0;" parent="1" source="2IGgDt8cm9o-xS9LzgXf-37" target="2IGgDt8cm9o-xS9LzgXf-60" edge="1">
          <mxGeometry relative="1" as="geometry" />
        </mxCell>
        <mxCell id="2IGgDt8cm9o-xS9LzgXf-62" style="edgeStyle=orthogonalEdgeStyle;rounded=0;orthogonalLoop=1;jettySize=auto;html=1;exitX=1;exitY=0.5;exitDx=0;exitDy=0;entryX=0.5;entryY=0;entryDx=0;entryDy=0;" parent="1" source="2IGgDt8cm9o-xS9LzgXf-37" target="2IGgDt8cm9o-xS9LzgXf-58" edge="1">
          <mxGeometry relative="1" as="geometry" />
        </mxCell>
        <mxCell id="2IGgDt8cm9o-xS9LzgXf-103" style="edgeStyle=orthogonalEdgeStyle;rounded=0;orthogonalLoop=1;jettySize=auto;html=1;exitX=0.5;exitY=1;exitDx=0;exitDy=0;entryX=0.5;entryY=0;entryDx=0;entryDy=0;" parent="1" source="2IGgDt8cm9o-xS9LzgXf-37" target="2IGgDt8cm9o-xS9LzgXf-57" edge="1">
          <mxGeometry relative="1" as="geometry" />
        </mxCell>
        <mxCell id="2IGgDt8cm9o-xS9LzgXf-37" value="&lt;b style=&quot;&quot;&gt;&lt;font style=&quot;font-size: 21px;&quot;&gt;NDVI&lt;/font&gt;&lt;/b&gt;" style="rounded=1;whiteSpace=wrap;html=1;" parent="1" vertex="1">
          <mxGeometry x="351" y="340" width="120" height="60" as="geometry" />
        </mxCell>
        <mxCell id="2IGgDt8cm9o-xS9LzgXf-99" style="edgeStyle=orthogonalEdgeStyle;rounded=0;orthogonalLoop=1;jettySize=auto;html=1;entryX=0.5;entryY=0;entryDx=0;entryDy=0;" parent="1" source="2IGgDt8cm9o-xS9LzgXf-39" target="2IGgDt8cm9o-xS9LzgXf-40" edge="1">
          <mxGeometry relative="1" as="geometry" />
        </mxCell>
        <mxCell id="2IGgDt8cm9o-xS9LzgXf-101" style="edgeStyle=orthogonalEdgeStyle;rounded=0;orthogonalLoop=1;jettySize=auto;html=1;exitX=0.5;exitY=1;exitDx=0;exitDy=0;entryX=0.5;entryY=0;entryDx=0;entryDy=0;" parent="1" source="2IGgDt8cm9o-xS9LzgXf-39" target="2IGgDt8cm9o-xS9LzgXf-45" edge="1">
          <mxGeometry relative="1" as="geometry" />
        </mxCell>
        <mxCell id="2IGgDt8cm9o-xS9LzgXf-39" value="&lt;span style=&quot;font-size: 16px;&quot;&gt;&lt;b&gt;e&lt;/b&gt;&lt;sub style=&quot;font-weight: bold;&quot;&gt;s&lt;/sub&gt;&lt;br&gt;saturation vapor pressure&lt;/span&gt;" style="rounded=1;whiteSpace=wrap;html=1;" parent="1" vertex="1">
          <mxGeometry x="1131" y="340" width="120" height="60" as="geometry" />
        </mxCell>
        <mxCell id="2IGgDt8cm9o-xS9LzgXf-110" style="edgeStyle=orthogonalEdgeStyle;rounded=0;orthogonalLoop=1;jettySize=auto;html=1;exitX=0.5;exitY=1;exitDx=0;exitDy=0;entryX=1;entryY=0.25;entryDx=0;entryDy=0;" parent="1" source="2IGgDt8cm9o-xS9LzgXf-40" target="2IGgDt8cm9o-xS9LzgXf-34" edge="1">
          <mxGeometry relative="1" as="geometry">
            <Array as="points">
              <mxPoint x="1191" y="685" />
            </Array>
          </mxGeometry>
        </mxCell>
        <mxCell id="2IGgDt8cm9o-xS9LzgXf-118" style="edgeStyle=orthogonalEdgeStyle;rounded=0;orthogonalLoop=1;jettySize=auto;html=1;exitX=0.75;exitY=1;exitDx=0;exitDy=0;entryX=0;entryY=0.5;entryDx=0;entryDy=0;" parent="1" source="2IGgDt8cm9o-xS9LzgXf-40" target="2IGgDt8cm9o-xS9LzgXf-77" edge="1">
          <mxGeometry relative="1" as="geometry">
            <Array as="points">
              <mxPoint x="1200" y="520" />
              <mxPoint x="1200" y="600" />
            </Array>
          </mxGeometry>
        </mxCell>
        <mxCell id="2IGgDt8cm9o-xS9LzgXf-40" value="&lt;font style=&quot;font-size: 16px;&quot;&gt;&lt;b style=&quot;&quot;&gt;VPD&lt;br&gt;&lt;/b&gt;vapor pressure deficit&lt;/font&gt;" style="rounded=1;whiteSpace=wrap;html=1;" parent="1" vertex="1">
          <mxGeometry x="1131" y="460" width="120" height="60" as="geometry" />
        </mxCell>
        <mxCell id="2IGgDt8cm9o-xS9LzgXf-117" style="edgeStyle=orthogonalEdgeStyle;rounded=0;orthogonalLoop=1;jettySize=auto;html=1;exitX=0.5;exitY=1;exitDx=0;exitDy=0;entryX=0.5;entryY=0;entryDx=0;entryDy=0;" parent="1" source="2IGgDt8cm9o-xS9LzgXf-45" target="2IGgDt8cm9o-xS9LzgXf-77" edge="1">
          <mxGeometry relative="1" as="geometry" />
        </mxCell>
        <mxCell id="2IGgDt8cm9o-xS9LzgXf-119" style="edgeStyle=orthogonalEdgeStyle;rounded=0;orthogonalLoop=1;jettySize=auto;html=1;exitX=1;exitY=0.5;exitDx=0;exitDy=0;entryX=0.5;entryY=0;entryDx=0;entryDy=0;" parent="1" source="2IGgDt8cm9o-xS9LzgXf-45" target="2IGgDt8cm9o-xS9LzgXf-80" edge="1">
          <mxGeometry relative="1" as="geometry" />
        </mxCell>
        <mxCell id="2IGgDt8cm9o-xS9LzgXf-45" value="&lt;font style=&quot;font-size: 16px;&quot;&gt;&lt;b style=&quot;&quot;&gt;RH&lt;br&gt;&lt;/b&gt;relative humidity&lt;/font&gt;" style="rounded=1;whiteSpace=wrap;html=1;" parent="1" vertex="1">
          <mxGeometry x="1291" y="460" width="120" height="60" as="geometry" />
        </mxCell>
        <mxCell id="2IGgDt8cm9o-xS9LzgXf-104" style="edgeStyle=orthogonalEdgeStyle;rounded=0;orthogonalLoop=1;jettySize=auto;html=1;entryX=0.5;entryY=0;entryDx=0;entryDy=0;exitX=1;exitY=0.5;exitDx=0;exitDy=0;" parent="1" source="2IGgDt8cm9o-xS9LzgXf-57" target="2IGgDt8cm9o-xS9LzgXf-90" edge="1">
          <mxGeometry relative="1" as="geometry" />
        </mxCell>
        <mxCell id="2IGgDt8cm9o-xS9LzgXf-105" style="edgeStyle=orthogonalEdgeStyle;rounded=0;orthogonalLoop=1;jettySize=auto;html=1;exitX=0.5;exitY=1;exitDx=0;exitDy=0;entryX=0.5;entryY=0;entryDx=0;entryDy=0;" parent="1" source="2IGgDt8cm9o-xS9LzgXf-57" target="2IGgDt8cm9o-xS9LzgXf-84" edge="1">
          <mxGeometry relative="1" as="geometry" />
        </mxCell>
        <mxCell id="2IGgDt8cm9o-xS9LzgXf-57" value="&lt;b style=&quot;&quot;&gt;&lt;font style=&quot;font-size: 21px;&quot;&gt;FAPAR&lt;/font&gt;&lt;/b&gt;" style="rounded=1;whiteSpace=wrap;html=1;" parent="1" vertex="1">
          <mxGeometry x="351" y="460" width="120" height="60" as="geometry" />
        </mxCell>
        <mxCell id="2IGgDt8cm9o-xS9LzgXf-91" style="edgeStyle=orthogonalEdgeStyle;rounded=0;orthogonalLoop=1;jettySize=auto;html=1;exitX=0;exitY=0.5;exitDx=0;exitDy=0;entryX=0.5;entryY=0;entryDx=0;entryDy=0;" parent="1" source="2IGgDt8cm9o-xS9LzgXf-58" target="2IGgDt8cm9o-xS9LzgXf-90" edge="1">
          <mxGeometry relative="1" as="geometry">
            <mxPoint x="1670.9999999999995" y="850" as="targetPoint" />
          </mxGeometry>
        </mxCell>
        <mxCell id="2IGgDt8cm9o-xS9LzgXf-102" style="edgeStyle=orthogonalEdgeStyle;rounded=0;orthogonalLoop=1;jettySize=auto;html=1;exitX=0.5;exitY=1;exitDx=0;exitDy=0;entryX=0.5;entryY=0;entryDx=0;entryDy=0;" parent="1" source="2IGgDt8cm9o-xS9LzgXf-58" target="2IGgDt8cm9o-xS9LzgXf-59" edge="1">
          <mxGeometry relative="1" as="geometry" />
        </mxCell>
        <mxCell id="2IGgDt8cm9o-xS9LzgXf-124" style="edgeStyle=orthogonalEdgeStyle;rounded=0;orthogonalLoop=1;jettySize=auto;html=1;exitX=1;exitY=0.25;exitDx=0;exitDy=0;entryX=0;entryY=0.5;entryDx=0;entryDy=0;" parent="1" source="2IGgDt8cm9o-xS9LzgXf-58" target="2IGgDt8cm9o-xS9LzgXf-65" edge="1">
          <mxGeometry relative="1" as="geometry">
            <Array as="points">
              <mxPoint x="730" y="475" />
              <mxPoint x="730" y="870" />
            </Array>
          </mxGeometry>
        </mxCell>
        <mxCell id="2IGgDt8cm9o-xS9LzgXf-58" value="&lt;b style=&quot;&quot;&gt;&lt;font style=&quot;font-size: 21px;&quot;&gt;FIPAR&lt;/font&gt;&lt;/b&gt;" style="rounded=1;whiteSpace=wrap;html=1;" parent="1" vertex="1">
          <mxGeometry x="587" y="460" width="120" height="60" as="geometry" />
        </mxCell>
        <mxCell id="2IGgDt8cm9o-xS9LzgXf-122" style="edgeStyle=orthogonalEdgeStyle;rounded=0;orthogonalLoop=1;jettySize=auto;html=1;exitX=0.5;exitY=1;exitDx=0;exitDy=0;entryX=0;entryY=0.5;entryDx=0;entryDy=0;" parent="1" source="2IGgDt8cm9o-xS9LzgXf-59" target="2IGgDt8cm9o-xS9LzgXf-68" edge="1">
          <mxGeometry relative="1" as="geometry" />
        </mxCell>
        <mxCell id="2IGgDt8cm9o-xS9LzgXf-59" value="&lt;b style=&quot;&quot;&gt;&lt;font style=&quot;font-size: 21px;&quot;&gt;LAI&lt;/font&gt;&lt;/b&gt;" style="rounded=1;whiteSpace=wrap;html=1;" parent="1" vertex="1">
          <mxGeometry x="587" y="570" width="120" height="60" as="geometry" />
        </mxCell>
        <mxCell id="2IGgDt8cm9o-xS9LzgXf-106" style="edgeStyle=orthogonalEdgeStyle;rounded=0;orthogonalLoop=1;jettySize=auto;html=1;exitX=0.5;exitY=1;exitDx=0;exitDy=0;" parent="1" source="2IGgDt8cm9o-xS9LzgXf-60" edge="1">
          <mxGeometry relative="1" as="geometry">
            <mxPoint x="331" y="570" as="targetPoint" />
          </mxGeometry>
        </mxCell>
        <mxCell id="2IGgDt8cm9o-xS9LzgXf-60" value="&lt;b style=&quot;&quot;&gt;&lt;font style=&quot;font-size: 21px;&quot;&gt;FAPAR&lt;sub&gt;max&lt;/sub&gt;&lt;/font&gt;&lt;/b&gt;" style="rounded=1;whiteSpace=wrap;html=1;" parent="1" vertex="1">
          <mxGeometry x="201" y="460" width="120" height="60" as="geometry" />
        </mxCell>
        <mxCell id="2IGgDt8cm9o-xS9LzgXf-65" value="&lt;span style=&quot;font-size: 17px;&quot;&gt;&lt;font style=&quot;font-size: 17px;&quot;&gt;&lt;b&gt;G&lt;/b&gt;&lt;br&gt;ground heat flux&lt;br&gt;&lt;/font&gt;&lt;/span&gt;" style="rounded=1;whiteSpace=wrap;html=1;" parent="1" vertex="1">
          <mxGeometry x="1831" y="840" width="120" height="60" as="geometry" />
        </mxCell>
        <mxCell id="2IGgDt8cm9o-xS9LzgXf-108" style="edgeStyle=orthogonalEdgeStyle;rounded=0;orthogonalLoop=1;jettySize=auto;html=1;entryX=0;entryY=0.5;entryDx=0;entryDy=0;" parent="1" source="2IGgDt8cm9o-xS9LzgXf-68" target="2IGgDt8cm9o-xS9LzgXf-71" edge="1">
          <mxGeometry relative="1" as="geometry" />
        </mxCell>
        <mxCell id="2IGgDt8cm9o-xS9LzgXf-68" value="&lt;span style=&quot;font-size: 16px;&quot;&gt;&lt;font style=&quot;font-size: 16px;&quot;&gt;&lt;b&gt;R&lt;/b&gt;&lt;sub style=&quot;font-weight: bold;&quot;&gt;ns&lt;/sub&gt;&lt;br&gt;soil net radiation&lt;br&gt;&lt;/font&gt;&lt;/span&gt;" style="rounded=1;whiteSpace=wrap;html=1;" parent="1" vertex="1">
          <mxGeometry x="1926" y="910" width="120" height="60" as="geometry" />
        </mxCell>
        <mxCell id="2IGgDt8cm9o-xS9LzgXf-71" value="&lt;span style=&quot;font-size: 16px;&quot;&gt;&lt;font style=&quot;font-size: 16px;&quot;&gt;&lt;b&gt;R&lt;/b&gt;&lt;sub style=&quot;font-weight: bold;&quot;&gt;nc&lt;/sub&gt;&lt;br&gt;canopy net radiation&lt;br&gt;&lt;/font&gt;&lt;/span&gt;" style="rounded=1;whiteSpace=wrap;html=1;" parent="1" vertex="1">
          <mxGeometry x="2120" y="910" width="120" height="60" as="geometry" />
        </mxCell>
        <mxCell id="2IGgDt8cm9o-xS9LzgXf-74" value="&lt;b style=&quot;&quot;&gt;&lt;font style=&quot;&quot;&gt;&lt;span style=&quot;font-size: 15px;&quot;&gt;f&lt;/span&gt;&lt;sub style=&quot;font-size: 15px;&quot;&gt;T&lt;/sub&gt;&lt;br&gt;&lt;font style=&quot;font-size: 13px;&quot;&gt;p&lt;/font&gt;&lt;/font&gt;&lt;font style=&quot;font-size: 13px;&quot;&gt;&lt;font style=&quot;font-size: 13px;&quot;&gt;lant temperature constraint&lt;/font&gt;&lt;br&gt;&lt;/font&gt;&lt;/b&gt;" style="rounded=1;whiteSpace=wrap;html=1;" parent="1" vertex="1">
          <mxGeometry x="963" y="780" width="120" height="60" as="geometry" />
        </mxCell>
        <mxCell id="2IGgDt8cm9o-xS9LzgXf-77" value="&lt;span style=&quot;font-size: 17px;&quot;&gt;&lt;font style=&quot;font-size: 17px;&quot;&gt;&lt;b&gt;f&lt;/b&gt;&lt;sub style=&quot;font-weight: bold;&quot;&gt;SM&lt;/sub&gt;&lt;br&gt;soil moisture constraint&lt;br&gt;&lt;/font&gt;&lt;/span&gt;" style="rounded=1;whiteSpace=wrap;html=1;" parent="1" vertex="1">
          <mxGeometry x="1291" y="570" width="120" height="60" as="geometry" />
        </mxCell>
        <mxCell id="2IGgDt8cm9o-xS9LzgXf-80" value="&lt;span style=&quot;font-size: 17px;&quot;&gt;&lt;font style=&quot;font-weight: bold; font-size: 17px;&quot;&gt;f&lt;/font&gt;&lt;font style=&quot;font-size: 17px;&quot;&gt;&lt;span style=&quot;font-weight: bold;&quot;&gt;&lt;sub&gt;wet&lt;/sub&gt;&lt;/span&gt;&lt;br&gt;relative surface wetness&lt;br&gt;&lt;/font&gt;&lt;/span&gt;" style="rounded=1;whiteSpace=wrap;html=1;" parent="1" vertex="1">
          <mxGeometry x="1460" y="570" width="120" height="60" as="geometry" />
        </mxCell>
        <mxCell id="2IGgDt8cm9o-xS9LzgXf-84" value="&lt;span style=&quot;font-size: 17px;&quot;&gt;&lt;font style=&quot;font-size: 17px;&quot;&gt;&lt;b&gt;f&lt;/b&gt;&lt;sub style=&quot;font-weight: bold;&quot;&gt;M&lt;/sub&gt;&lt;br&gt;plant moisture constraint&lt;br&gt;&lt;/font&gt;&lt;/span&gt;" style="rounded=1;whiteSpace=wrap;html=1;" parent="1" vertex="1">
          <mxGeometry x="271" y="570" width="120" height="60" as="geometry" />
        </mxCell>
        <mxCell id="2IGgDt8cm9o-xS9LzgXf-137" style="edgeStyle=orthogonalEdgeStyle;rounded=0;orthogonalLoop=1;jettySize=auto;html=1;exitX=0.5;exitY=1;exitDx=0;exitDy=0;entryX=0;entryY=0.5;entryDx=0;entryDy=0;entryPerimeter=0;fillColor=#d5e8d4;strokeColor=#82b366;strokeWidth=5;" parent="1" source="2IGgDt8cm9o-xS9LzgXf-90" target="2IGgDt8cm9o-xS9LzgXf-95" edge="1">
          <mxGeometry relative="1" as="geometry">
            <mxPoint x="1140" y="1340" as="targetPoint" />
          </mxGeometry>
        </mxCell>
        <mxCell id="2IGgDt8cm9o-xS9LzgXf-90" value="&lt;span style=&quot;font-size: 17px;&quot;&gt;&lt;font style=&quot;font-size: 17px;&quot;&gt;&lt;b&gt;f&lt;/b&gt;&lt;sub style=&quot;font-weight: bold;&quot;&gt;g&lt;/sub&gt;&lt;br&gt;green canopy fraction&lt;br&gt;&lt;/font&gt;&lt;/span&gt;" style="rounded=1;whiteSpace=wrap;html=1;" parent="1" vertex="1">
          <mxGeometry x="441" y="570" width="120" height="60" as="geometry" />
        </mxCell>
        <mxCell id="2IGgDt8cm9o-xS9LzgXf-93" value="&lt;font style=&quot;font-size: 15px;&quot;&gt;&lt;b style=&quot;font-size: 15px;&quot;&gt;soil evaporation&lt;/b&gt;&lt;/font&gt;" style="shape=cylinder3;whiteSpace=wrap;html=1;boundedLbl=1;backgroundOutline=1;size=15;fillColor=#ffe6cc;strokeColor=#d79b00;fontSize=15;" parent="1" vertex="1">
          <mxGeometry x="2023" y="1020" width="90" height="120" as="geometry" />
        </mxCell>
        <mxCell id="2IGgDt8cm9o-xS9LzgXf-94" value="&lt;font style=&quot;font-size: 15px;&quot;&gt;&lt;b style=&quot;font-size: 15px;&quot;&gt;interception evaporation&lt;/b&gt;&lt;/font&gt;" style="shape=cylinder3;whiteSpace=wrap;html=1;boundedLbl=1;backgroundOutline=1;size=15;fillColor=#dae8fc;strokeColor=#6c8ebf;fontSize=15;" parent="1" vertex="1">
          <mxGeometry x="2280" y="1260" width="90" height="120" as="geometry" />
        </mxCell>
        <mxCell id="2IGgDt8cm9o-xS9LzgXf-95" value="&lt;font style=&quot;font-size: 15px;&quot;&gt;&lt;b style=&quot;font-size: 15px;&quot;&gt;canopy transpiration&lt;/b&gt;&lt;/font&gt;" style="shape=cylinder3;whiteSpace=wrap;html=1;boundedLbl=1;backgroundOutline=1;size=15;fillColor=#d5e8d4;strokeColor=#82b366;fontSize=15;" parent="1" vertex="1">
          <mxGeometry x="2135" y="1140" width="90" height="120" as="geometry" />
        </mxCell>
        <mxCell id="2IGgDt8cm9o-xS9LzgXf-111" style="edgeStyle=orthogonalEdgeStyle;rounded=0;orthogonalLoop=1;jettySize=auto;html=1;entryX=0;entryY=0.25;entryDx=0;entryDy=0;exitX=0.5;exitY=1;exitDx=0;exitDy=0;" parent="1" source="2IGgDt8cm9o-xS9LzgXf-38" target="2IGgDt8cm9o-xS9LzgXf-34" edge="1">
          <mxGeometry relative="1" as="geometry">
            <Array as="points">
              <mxPoint x="811" y="685" />
            </Array>
          </mxGeometry>
        </mxCell>
        <mxCell id="2IGgDt8cm9o-xS9LzgXf-38" value="&lt;b style=&quot;&quot;&gt;&lt;font style=&quot;font-size: 21px;&quot;&gt;SAVI&lt;/font&gt;&lt;/b&gt;" style="rounded=1;whiteSpace=wrap;html=1;" parent="1" vertex="1">
          <mxGeometry x="751" y="570" width="120" height="60" as="geometry" />
        </mxCell>
        <mxCell id="2IGgDt8cm9o-xS9LzgXf-116" style="edgeStyle=orthogonalEdgeStyle;rounded=0;orthogonalLoop=1;jettySize=auto;html=1;exitX=0.5;exitY=1;exitDx=0;exitDy=0;entryX=0;entryY=0.5;entryDx=0;entryDy=0;" parent="1" source="2IGgDt8cm9o-xS9LzgXf-113" target="2IGgDt8cm9o-xS9LzgXf-114" edge="1">
          <mxGeometry relative="1" as="geometry" />
        </mxCell>
        <mxCell id="2IGgDt8cm9o-xS9LzgXf-113" value="&lt;font style=&quot;font-size: 27px;&quot;&gt;delta&lt;/font&gt;" style="ellipse;whiteSpace=wrap;html=1;aspect=fixed;" parent="1" vertex="1">
          <mxGeometry x="1083" y="530" width="80" height="80" as="geometry" />
        </mxCell>
        <mxCell id="2IGgDt8cm9o-xS9LzgXf-133" style="edgeStyle=orthogonalEdgeStyle;rounded=0;orthogonalLoop=1;jettySize=auto;html=1;exitX=0;exitY=1;exitDx=0;exitDy=0;entryX=0;entryY=0.5;entryDx=0;entryDy=0;entryPerimeter=0;fillColor=#ffe6cc;strokeColor=#d79b00;strokeWidth=5;" parent="1" source="2IGgDt8cm9o-xS9LzgXf-114" target="2IGgDt8cm9o-xS9LzgXf-93" edge="1">
          <mxGeometry relative="1" as="geometry">
            <mxPoint x="1810" y="1060" as="targetPoint" />
            <Array as="points">
              <mxPoint x="1622" y="1080" />
            </Array>
          </mxGeometry>
        </mxCell>
        <mxCell id="2IGgDt8cm9o-xS9LzgXf-114" value="&lt;font style=&quot;font-size: 23px;&quot;&gt;epsilon&lt;/font&gt;" style="ellipse;whiteSpace=wrap;html=1;aspect=fixed;" parent="1" vertex="1">
          <mxGeometry x="1610" y="770" width="80" height="80" as="geometry" />
        </mxCell>
        <mxCell id="2IGgDt8cm9o-xS9LzgXf-131" style="edgeStyle=orthogonalEdgeStyle;rounded=0;orthogonalLoop=1;jettySize=auto;html=1;exitX=0.25;exitY=1;exitDx=0;exitDy=0;entryX=0;entryY=0.5;entryDx=0;entryDy=0;entryPerimeter=0;fillColor=#ffe6cc;strokeColor=#d79b00;strokeWidth=5;" parent="1" source="2IGgDt8cm9o-xS9LzgXf-80" target="2IGgDt8cm9o-xS9LzgXf-93" edge="1">
          <mxGeometry relative="1" as="geometry" />
        </mxCell>
        <mxCell id="2IGgDt8cm9o-xS9LzgXf-132" style="edgeStyle=orthogonalEdgeStyle;rounded=0;orthogonalLoop=1;jettySize=auto;html=1;exitX=0.5;exitY=1;exitDx=0;exitDy=0;entryX=0;entryY=0.5;entryDx=0;entryDy=0;entryPerimeter=0;fillColor=#ffe6cc;strokeColor=#d79b00;strokeWidth=5;" parent="1" source="2IGgDt8cm9o-xS9LzgXf-77" target="2IGgDt8cm9o-xS9LzgXf-93" edge="1">
          <mxGeometry relative="1" as="geometry" />
        </mxCell>
        <mxCell id="2IGgDt8cm9o-xS9LzgXf-134" style="edgeStyle=orthogonalEdgeStyle;rounded=0;orthogonalLoop=1;jettySize=auto;html=1;exitX=0.5;exitY=1;exitDx=0;exitDy=0;entryX=0;entryY=0.5;entryDx=0;entryDy=0;entryPerimeter=0;fillColor=#ffe6cc;strokeColor=#d79b00;strokeWidth=5;" parent="1" source="2IGgDt8cm9o-xS9LzgXf-65" target="2IGgDt8cm9o-xS9LzgXf-93" edge="1">
          <mxGeometry relative="1" as="geometry" />
        </mxCell>
        <mxCell id="2IGgDt8cm9o-xS9LzgXf-135" style="edgeStyle=orthogonalEdgeStyle;rounded=0;orthogonalLoop=1;jettySize=auto;html=1;exitX=0.5;exitY=1;exitDx=0;exitDy=0;entryX=0;entryY=0.5;entryDx=0;entryDy=0;entryPerimeter=0;fillColor=#ffe6cc;strokeColor=#d79b00;strokeWidth=5;" parent="1" source="2IGgDt8cm9o-xS9LzgXf-68" target="2IGgDt8cm9o-xS9LzgXf-93" edge="1">
          <mxGeometry relative="1" as="geometry" />
        </mxCell>
        <mxCell id="2IGgDt8cm9o-xS9LzgXf-136" style="edgeStyle=orthogonalEdgeStyle;rounded=0;orthogonalLoop=1;jettySize=auto;html=1;exitX=0.5;exitY=1;exitDx=0;exitDy=0;entryX=0;entryY=0.5;entryDx=0;entryDy=0;entryPerimeter=0;fillColor=#d5e8d4;strokeColor=#82b366;strokeWidth=5;" parent="1" source="2IGgDt8cm9o-xS9LzgXf-80" target="2IGgDt8cm9o-xS9LzgXf-95" edge="1">
          <mxGeometry relative="1" as="geometry" />
        </mxCell>
        <mxCell id="2IGgDt8cm9o-xS9LzgXf-138" style="edgeStyle=orthogonalEdgeStyle;rounded=0;orthogonalLoop=1;jettySize=auto;html=1;exitX=0.5;exitY=1;exitDx=0;exitDy=0;entryX=0;entryY=0.5;entryDx=0;entryDy=0;entryPerimeter=0;fillColor=#d5e8d4;strokeColor=#82b366;strokeWidth=5;" parent="1" source="2IGgDt8cm9o-xS9LzgXf-74" target="2IGgDt8cm9o-xS9LzgXf-95" edge="1">
          <mxGeometry relative="1" as="geometry" />
        </mxCell>
        <mxCell id="2IGgDt8cm9o-xS9LzgXf-139" style="edgeStyle=orthogonalEdgeStyle;rounded=0;orthogonalLoop=1;jettySize=auto;html=1;exitX=0.5;exitY=1;exitDx=0;exitDy=0;entryX=0;entryY=0.5;entryDx=0;entryDy=0;entryPerimeter=0;fillColor=#d5e8d4;strokeColor=#82b366;strokeWidth=5;" parent="1" source="2IGgDt8cm9o-xS9LzgXf-84" target="2IGgDt8cm9o-xS9LzgXf-95" edge="1">
          <mxGeometry relative="1" as="geometry" />
        </mxCell>
        <mxCell id="2IGgDt8cm9o-xS9LzgXf-140" style="edgeStyle=orthogonalEdgeStyle;rounded=0;orthogonalLoop=1;jettySize=auto;html=1;entryX=0;entryY=0.5;entryDx=0;entryDy=0;entryPerimeter=0;fillColor=#d5e8d4;strokeColor=#82b366;strokeWidth=5;" parent="1" source="2IGgDt8cm9o-xS9LzgXf-114" target="2IGgDt8cm9o-xS9LzgXf-95" edge="1">
          <mxGeometry relative="1" as="geometry">
            <Array as="points">
              <mxPoint x="1650" y="1200" />
            </Array>
          </mxGeometry>
        </mxCell>
        <mxCell id="2IGgDt8cm9o-xS9LzgXf-141" style="edgeStyle=orthogonalEdgeStyle;rounded=0;orthogonalLoop=1;jettySize=auto;html=1;exitX=0.5;exitY=1;exitDx=0;exitDy=0;entryX=0.5;entryY=0;entryDx=0;entryDy=0;entryPerimeter=0;fillColor=#d5e8d4;strokeColor=#82b366;strokeWidth=5;" parent="1" source="2IGgDt8cm9o-xS9LzgXf-71" target="2IGgDt8cm9o-xS9LzgXf-95" edge="1">
          <mxGeometry relative="1" as="geometry" />
        </mxCell>
        <mxCell id="2IGgDt8cm9o-xS9LzgXf-142" style="edgeStyle=orthogonalEdgeStyle;rounded=0;orthogonalLoop=1;jettySize=auto;html=1;exitX=0.75;exitY=1;exitDx=0;exitDy=0;entryX=0;entryY=0.5;entryDx=0;entryDy=0;entryPerimeter=0;fillColor=#dae8fc;strokeColor=#6c8ebf;strokeWidth=5;" parent="1" source="2IGgDt8cm9o-xS9LzgXf-80" target="2IGgDt8cm9o-xS9LzgXf-94" edge="1">
          <mxGeometry relative="1" as="geometry" />
        </mxCell>
        <mxCell id="2IGgDt8cm9o-xS9LzgXf-143" style="edgeStyle=orthogonalEdgeStyle;rounded=0;orthogonalLoop=1;jettySize=auto;html=1;exitX=1;exitY=1;exitDx=0;exitDy=0;entryX=0;entryY=0.5;entryDx=0;entryDy=0;entryPerimeter=0;fillColor=#dae8fc;strokeColor=#6c8ebf;strokeWidth=5;" parent="1" source="2IGgDt8cm9o-xS9LzgXf-114" target="2IGgDt8cm9o-xS9LzgXf-94" edge="1">
          <mxGeometry relative="1" as="geometry">
            <Array as="points">
              <mxPoint x="1678" y="1320" />
            </Array>
          </mxGeometry>
        </mxCell>
        <mxCell id="2IGgDt8cm9o-xS9LzgXf-144" style="edgeStyle=orthogonalEdgeStyle;rounded=0;orthogonalLoop=1;jettySize=auto;html=1;exitX=1;exitY=0.5;exitDx=0;exitDy=0;entryX=0.5;entryY=0;entryDx=0;entryDy=0;entryPerimeter=0;fillColor=#dae8fc;strokeColor=#6c8ebf;strokeWidth=5;" parent="1" source="2IGgDt8cm9o-xS9LzgXf-71" target="2IGgDt8cm9o-xS9LzgXf-94" edge="1">
          <mxGeometry relative="1" as="geometry" />
        </mxCell>
        <mxCell id="2IGgDt8cm9o-xS9LzgXf-145" value="&lt;font size=&quot;1&quot; style=&quot;&quot;&gt;&lt;b style=&quot;font-size: 22px;&quot;&gt;total evapotranspiration&lt;/b&gt;&lt;/font&gt;" style="shape=cube;whiteSpace=wrap;html=1;boundedLbl=1;backgroundOutline=1;darkOpacity=0.05;darkOpacity2=0.1;fillColor=#f8cecc;strokeColor=#b85450;" parent="1" vertex="1">
          <mxGeometry x="1999" y="1410" width="230" height="110" as="geometry" />
        </mxCell>
        <mxCell id="2IGgDt8cm9o-xS9LzgXf-146" style="edgeStyle=orthogonalEdgeStyle;rounded=0;orthogonalLoop=1;jettySize=auto;html=1;exitX=0.5;exitY=1;exitDx=0;exitDy=0;exitPerimeter=0;entryX=0.303;entryY=0.007;entryDx=0;entryDy=0;entryPerimeter=0;fillColor=#f8cecc;strokeColor=#b85450;strokeWidth=5;" parent="1" source="2IGgDt8cm9o-xS9LzgXf-93" target="2IGgDt8cm9o-xS9LzgXf-145" edge="1">
          <mxGeometry relative="1" as="geometry" />
        </mxCell>
        <mxCell id="2IGgDt8cm9o-xS9LzgXf-147" style="edgeStyle=orthogonalEdgeStyle;rounded=0;orthogonalLoop=1;jettySize=auto;html=1;exitX=0.5;exitY=1;exitDx=0;exitDy=0;exitPerimeter=0;fillColor=#f8cecc;strokeColor=#b85450;strokeWidth=5;" parent="1" source="2IGgDt8cm9o-xS9LzgXf-95" edge="1">
          <mxGeometry relative="1" as="geometry">
            <mxPoint x="2180" y="1410" as="targetPoint" />
          </mxGeometry>
        </mxCell>
        <mxCell id="2IGgDt8cm9o-xS9LzgXf-148" style="edgeStyle=orthogonalEdgeStyle;rounded=0;orthogonalLoop=1;jettySize=auto;html=1;exitX=0.5;exitY=1;exitDx=0;exitDy=0;exitPerimeter=0;entryX=0;entryY=0;entryDx=230;entryDy=65;entryPerimeter=0;fillColor=#f8cecc;strokeColor=#b85450;strokeWidth=5;" parent="1" source="2IGgDt8cm9o-xS9LzgXf-94" target="2IGgDt8cm9o-xS9LzgXf-145" edge="1">
          <mxGeometry relative="1" as="geometry" />
        </mxCell>
        <mxCell id="NmCsO_xbhJsXgOqxZYxR-2" style="edgeStyle=orthogonalEdgeStyle;rounded=0;orthogonalLoop=1;jettySize=auto;html=1;entryX=0.5;entryY=0;entryDx=0;entryDy=0;" edge="1" parent="1" source="NmCsO_xbhJsXgOqxZYxR-1" target="2IGgDt8cm9o-xS9LzgXf-14">
          <mxGeometry relative="1" as="geometry">
            <Array as="points">
              <mxPoint x="2030" y="220" />
              <mxPoint x="1939" y="220" />
            </Array>
          </mxGeometry>
        </mxCell>
        <mxCell id="NmCsO_xbhJsXgOqxZYxR-1" value="&lt;font style=&quot;font-size: 12px;&quot;&gt;&lt;b&gt;Total atmospheric precipitable water&lt;br&gt;(MOD05)&lt;/b&gt;&lt;/font&gt;" style="shape=parallelogram;perimeter=parallelogramPerimeter;whiteSpace=wrap;html=1;fixedSize=1;fillColor=#f5f5f5;fontColor=#333333;strokeColor=#666666;" vertex="1" parent="1">
          <mxGeometry x="1970" y="150" width="120" height="60" as="geometry" />
        </mxCell>
      </root>
    </mxGraphModel>
  </diagram>
</mxfile>
